<?xml version="1.0" encoding="utf-8"?>
<!-- Svg Vector Icons : http://www.onlinewebfonts.com/icon -->
<!DOCTYPE svg PUBLIC "-//W3C//DTD SVG 1.1//EN" "http://www.w3.org/Graphics/SVG/1.1/DTD/svg11.dtd">
<svg version="1.1" xmlns="http://www.w3.org/2000/svg" xmlns:xlink="http://www.w3.org/1999/xlink" x="0px" y="0px" viewBox="0 0 1000 1000" enable-background="new 0 0 1000 1000" xml:space="preserve">
<metadata> Svg Vector Icons : http://www.onlinewebfonts.com/icon </metadata>
<g><g><g><g><path d="M560.9,924.7c-1.6-4.5-44.8-108.6-4.3-208c23.4-57.4,69.6-101,137.3-129.4C803.9,541.2,795.3,437,794.8,432.6c-0.1-0.5-0.1-1.1-0.1-1.6l-2.1-138.6c-154.5,101.2-283.5,80.7-366.4,43.8C331.3,294,276.8,223.2,274.5,220.2c-6.3-8.2-4.6-20,3.6-26.2c8.2-6.2,20-4.6,26.2,3.6l0,0c0.5,0.7,51.9,67,138.4,105.1c114.5,50.4,234.6,30,356.9-60.7c5.6-4.2,13.1-4.9,19.4-1.7c6.3,3.1,10.3,9.5,10.4,16.5l2.7,173.3c0.9,13.2,5.6,137.6-123.8,191.8c-196.4,82.4-116.5,280-113,288.3c4,9.5-0.5,20.5-10,24.5C583,935.7,566.8,941.5,560.9,924.7z"/><path d="M408.6,233.9c-28.8-4-50.1-27.5-53.8-54.9L25.1,113.6c-10.1-2-16.7-11.9-14.7-22c2-10.1,11.9-16.7,22-14.7l344.8,68.3c9.8,2,16.4,11.3,14.9,21.2c-2.2,14.6,7.7,28.3,22.3,30.5c22.1,3.3,28.9-15.4,30.5-22.3c3-13.2,17.5-16.5,22.5-15.4l130.9,28.7c10.1,2.2,16.5,12.2,14.3,22.3c-2.2,10.1-12.2,16.5-22.3,14.3l-114.5-25.1C471.2,208.3,454.5,240.3,408.6,233.9z"/><path d="M682.5,551.1c-10.4,0-18.7-8.4-18.7-18.7v-139c0-10.3,8.4-18.7,18.7-18.7c10.3,0,18.7,8.4,18.7,18.7v139C701.2,542.7,692.8,551.1,682.5,551.1z"/><path d="M956.3,923.4L758.5,664.1c-6.3-8.2-4.7-20,3.5-26.2c8.2-6.3,19.9-4.7,26.2,3.5l197.9,259.4c6.3,8.2,4.9,20.3-3.5,26.2C970.6,935.5,960,928.3,956.3,923.4z"/></g><path d="M706.4,240.9c48.9,0,88.7-39.8,88.7-88.7c0-48.9-39.8-88.7-88.7-88.7c-48.9,0-88.7,39.8-88.7,88.7C617.7,201.1,657.5,240.9,706.4,240.9z M706.4,101.9c27.7,0,50.3,22.6,50.3,50.3s-22.6,50.3-50.3,50.3c-27.7,0-50.3-22.5-50.3-50.3C656.1,124.5,678.6,101.9,706.4,101.9z"/></g></g><g></g><g></g><g></g><g></g><g></g><g></g><g></g><g></g><g></g><g></g><g></g><g></g><g></g><g></g><g></g></g>
</svg>